<svg xmlns="http://www.w3.org/2000/svg" viewBox="0 0 651.61 440.42"><defs><style>.cls-1{font-size:120.42px;font-family:FredokaOne-Regular, Fredoka One;}.cls-1,.cls-6{fill:#fff;}.cls-2{letter-spacing:-0.02em;}.cls-3{letter-spacing:-0.03em;}.cls-4{letter-spacing:0em;}.cls-5{letter-spacing:-0.01em;}</style></defs><g id="Layer_2" data-name="Layer 2"><g id="Layer_1-2" data-name="Layer 1"><text class="cls-1" transform="translate(0 412)">Be<tspan class="cls-2" x="146.8" y="0">s</tspan><tspan x="203.76" y="0">tau</tspan><tspan class="cls-3" x="402.58" y="0">r</tspan><tspan class="cls-4" x="454" y="0">a</tspan><tspan class="cls-5" x="525.77" y="0">n</tspan><tspan x="597.54" y="0">t</tspan></text><path class="cls-6" d="M143.34,126.06a56.36,56.36,0,0,1-8.52-28.68c-.21-15.31,6.26-26.44,9.68-32.16C161.32,37.14,194.8,23.58,210.38,18,281.33-7.71,344.45-.39,400.26,6.71c27.36,3.48,53.93,8.76,79.83,27.12,13,9.21,30.08,21.34,35.26,43,6.33,26.48-9.55,52.4-20.4,63.89a87.85,87.85,0,0,1-10.08,9c-10.72,8-20.94,10.52-30,14A256.21,256.21,0,0,1,410,176.05c-7.74,1.44-37.93,6.75-90.94,5.17-21.93-.66-47.6-1.54-81.12-7.75-3.93-.73-47.88-9.2-77.5-30A59.56,59.56,0,0,1,143.34,126.06Z"/><path class="cls-6" d="M497.27,144.79a55.35,55.35,0,0,1,3.35,17.89c.31,17-7.63,29.45-11.23,35.07-18.29,28.55-53.84,39.58-73.24,45.34-22.92,6.81-39.92,7.7-70.53,9.3-41.33,2.16-69.29-1.79-81.76-3.88-17.62-2.94-27.17-4.54-39.92-10.07-15.15-6.58-26.63-15.88-49.6-34.49-16.56-13.42-20.85-18.48-24-22.86-11.36-15.66-13.47-29.43-13.95-36-.55-7.49.07-18.23,3.1-18.86,1.87-.39,3.81,3.28,7.23,8.27,4.87,7.1,11.21,13.07,16.79,19.63,12.25,14.39,35.78,26.88,41.85,30.1,35.58,18.87,70.11,24.91,94.94,29.06,11.05,1.85,47.37,7.45,82.28,3.62,11.07-1.22,20.58-3.22,21.87-3.5,15.08-3.33,27.42-8,40.39-13,9.94-3.83,18.91-8,27.65-16a86.08,86.08,0,0,0,14.46-17.83A100.13,100.13,0,0,0,497.27,144.79Z"/></g></g></svg>