<svg xmlns="http://www.w3.org/2000/svg" viewBox="0 0 719.85 397.83"><defs><style>.cls-1{font-size:133.04px;font-family:FredokaOne-Regular, Fredoka One;}.cls-1,.cls-5{fill:#d96098;}.cls-2{letter-spacing:-0.02em;}.cls-3{letter-spacing:-0.03em;}.cls-4{letter-spacing:-0.01em;}</style></defs><g id="Layer_2" data-name="Layer 2"><g id="Layer_1-2" data-name="Layer 1"><text class="cls-1" transform="translate(0 366.43)">Be<tspan class="cls-2" x="162.17" y="0">s</tspan><tspan x="225.1" y="0">tau</tspan><tspan class="cls-3" x="444.74" y="0">r</tspan><tspan x="501.54" y="0">a</tspan><tspan class="cls-4" x="580.83" y="0">n</tspan><tspan x="660.12" y="0">t</tspan></text><path class="cls-5" d="M206.91,112.36a60.28,60.28,0,0,1-4.94-7.84,52.58,52.58,0,0,1-4.34-11.77,62.89,62.89,0,0,1,2.74-32.55c11.83-32.83,77-50.61,89-53.73,0,0,66.7-17.32,163.94,4.71a112.78,112.78,0,0,1,20.4,6.66c15.57,6.78,38.86,16.91,47.45,40.79,9.52,26.43-5.77,50.79-6.66,52.17A52,52,0,0,1,505.31,121c-10.48,9.51-21.39,13.64-28.83,16.08-39.84,13.08-99.61,16.87-99.62,16.87-27.77.92-46.19,1.53-72.16-1.57C304.7,152.37,230.47,143.5,206.91,112.36Z"/><path class="cls-5" d="M507.66,120.4c3,.35,6.37,19.14,0,36.68-2,5.47-6.37,14.75-19,25.88-9.45,8.32-29.79,22.49-73.73,30.59,0,0-60.81,11.21-142-9.8a79.76,79.76,0,0,1-17.65-6.67c-4.86-2.56-10.22-6.06-27.06-22.75-19-18.82-23.06-25.14-25.49-29.41-4.76-8.34-6.62-14.62-7.06-20.79-.6-8.3,1.26-18,3.72-18.24,1.67-.13,3.17,4.18,4.12,6.47,4.39,10.63,13,16.76,27.53,27.15,30.88,22.06,75.62,34.43,75.62,34.43a295.37,295.37,0,0,0,67.46,10.59,234.44,234.44,0,0,0,33.32-1c16.74-1.76,32.14-3.05,50.61-10.34,17-6.71,24.66-13.65,27.64-16.57,6.35-6.22,10.67-14.21,12.36-17.16C505.11,127.14,505.83,120.19,507.66,120.4Z"/><path class="cls-5" d="M359.2,119.42a16.34,16.34,0,0,1,1.46,2.19c-.18-.18-.37-.55-.55-.73A3.82,3.82,0,0,1,359.2,119.42Z"/><path class="cls-5" d="M359.2,119.42a16.34,16.34,0,0,1,1.46,2.19c-.18-.18-.37-.55-.55-.73A3.82,3.82,0,0,1,359.2,119.42Z"/></g></g></svg>